<svg version="1.1" xmlns="http://www.w3.org/2000/svg" viewBox="0 0 2158.5094240451594 1682.964952256942" width="2158.5094240451594" height="1682.964952256942">
  <!-- svg-source:excalidraw -->
  
  <defs>
    <style>
      @font-face {
        font-family: "Virgil";
        src: url("https://excalidraw.com/Virgil.woff2");
      }
      @font-face {
        font-family: "Cascadia";
        src: url("https://excalidraw.com/Cascadia.woff2");
      }
    </style>
  </defs>
  <g stroke-linecap="round" transform="translate(373.57139701143296 601.4729822378454) rotate(0 554.9807477678573 455.23807175310105)"><path d="M227.62 0 L882.34 0 L909.91 0.89 L947.92 5.56 L971.03 10.89 L992.37 18.01 L1011.93 26.9 L1021.05 32.01 L1037.94 43.57 L1053.06 56.9 L1066.39 72.02 L1077.95 88.91 L1087.73 107.59 L1095.74 128.04 L1101.96 150.26 L1106.4 174.27 L1109.07 200.06 L1109.96 227.62 L1109.96 682.86 L1107.96 723.54 L1106.4 736.21 L1101.96 760.21 L1095.74 782.44 L1091.96 792.89 L1083.07 812.45 L1072.4 830.23 L1066.39 838.46 L1053.06 853.57 L1037.94 866.91 L1021.05 878.47 L1002.38 888.25 L981.93 896.25 L959.7 902.47 L935.69 906.92 L909.91 909.59 L882.34 910.48 L227.62 910.48 L200.06 909.59 L174.27 906.92 L150.26 902.47 L138.93 899.58 L117.59 892.47 L98.03 883.58 L88.91 878.47 L72.02 866.91 L56.9 853.57 L50.01 846.24 L37.57 830.23 L26.9 812.45 L18.01 792.89 L10.89 771.55 L5.56 748.43 L0.89 710.42 L0 682.86 L0 227.62 L2 186.94 L5.56 162.05 L8 150.26 L14.23 128.04 L22.23 107.59 L32.01 88.91 L37.57 80.24 L50.01 64.24 L64.24 50.01 L80.24 37.57 L98.03 26.9 L117.59 18.01 L138.93 10.89 L150.26 8 L174.27 3.56 L186.94 2 L227.62 0" stroke="none" stroke-width="0" fill="#303940"></path><path d="M227.62 0 M227.62 0 C438.48 0, 649.35 0, 882.34 0 M227.62 0 C366.43 0, 505.25 0, 882.34 0 M882.34 0 C1034.09 0, 1109.96 75.87, 1109.96 227.62 M882.34 0 C1034.09 0, 1109.96 75.87, 1109.96 227.62 M1109.96 227.62 C1109.96 345.71, 1109.96 463.81, 1109.96 682.86 M1109.96 227.62 C1109.96 385.34, 1109.96 543.07, 1109.96 682.86 M1109.96 682.86 C1109.96 834.6, 1034.09 910.48, 882.34 910.48 M1109.96 682.86 C1109.96 834.6, 1034.09 910.48, 882.34 910.48 M882.34 910.48 C690.66 910.48, 498.97 910.48, 227.62 910.48 M882.34 910.48 C656.63 910.48, 430.92 910.48, 227.62 910.48 M227.62 910.48 C75.87 910.48, 0 834.6, 0 682.86 M227.62 910.48 C75.87 910.48, 0 834.6, 0 682.86 M0 682.86 C0 588.13, 0 493.4, 0 227.62 M0 682.86 C0 552.33, 0 421.79, 0 227.62 M0 227.62 C0 75.87, 75.87 0, 227.62 0 M0 227.62 C0 75.87, 75.87 0, 227.62 0" stroke="#ffffff" stroke-width="4" fill="none"></path></g><g stroke-linecap="round" transform="translate(501.70395150959894 1219.6300526540447) rotate(0 434.13518524905203 129.68459744795018)"><path d="M0 0 L868.27 0 L868.27 259.37 L0 259.37" stroke="none" stroke-width="0" fill="#3f5866"></path><path d="M0 0 C205.35 0, 410.7 0, 868.27 0 M0 0 C233.4 0, 466.81 0, 868.27 0 M868.27 0 C868.27 70.74, 868.27 141.49, 868.27 259.37 M868.27 0 C868.27 67.5, 868.27 135, 868.27 259.37 M868.27 259.37 C596.19 259.37, 324.12 259.37, 0 259.37 M868.27 259.37 C647.46 259.37, 426.65 259.37, 0 259.37 M0 259.37 C0 195.31, 0 131.25, 0 0 M0 259.37 C0 179.32, 0 99.27, 0 0" stroke="#ffffff" stroke-width="4" fill="none"></path></g><g stroke-linecap="round" transform="translate(482.7556866132586 632.5923154712796) rotate(0 206.9825227894064 274.37235646897415)"><path d="M0 0 L413.97 0 L413.97 548.74 L0 548.74" stroke="none" stroke-width="0" fill="#23475c"></path><path d="M0 0 C145.72 0, 291.43 0, 413.97 0 M0 0 C148.92 0, 297.83 0, 413.97 0 M413.97 0 C413.97 215.55, 413.97 431.09, 413.97 548.74 M413.97 0 C413.97 185.47, 413.97 370.94, 413.97 548.74 M413.97 548.74 C257.59 548.74, 101.22 548.74, 0 548.74 M413.97 548.74 C318.76 548.74, 223.55 548.74, 0 548.74 M0 548.74 C0 425.51, 0 302.28, 0 0 M0 548.74 C0 436.98, 0 325.21, 0 0" stroke="#ffffff" stroke-width="2" fill="none"></path></g><g stroke-linecap="round" transform="translate(1012.6365377536317 879.6787015163432) rotate(0 148.17931777292597 116.84302490541575)"><path d="M0 0 L296.36 0 L296.36 233.69 L0 233.69" stroke="none" stroke-width="0" fill="#23475c"></path><path d="M0 0 C62.24 0, 124.48 0, 296.36 0 M0 0 C69.73 0, 139.45 0, 296.36 0 M296.36 0 C296.36 91.21, 296.36 182.42, 296.36 233.69 M296.36 0 C296.36 68.43, 296.36 136.87, 296.36 233.69 M296.36 233.69 C214.56 233.69, 132.75 233.69, 0 233.69 M296.36 233.69 C234.9 233.69, 173.44 233.69, 0 233.69 M0 233.69 C0 181.31, 0 128.94, 0 0 M0 233.69 C0 154.94, 0 76.2, 0 0" stroke="#ffffff" stroke-width="2" fill="none"></path></g><g stroke-linecap="round" transform="translate(1016.2414432460873 626.1549030645576) rotate(0 139.86153859188403 117.49081136374912)"><path d="M0 0 L279.72 0 L279.72 234.98 L0 234.98" stroke="none" stroke-width="0" fill="#23475c"></path><path d="M0 0 C85.82 0, 171.65 0, 279.72 0 M0 0 C64.78 0, 129.57 0, 279.72 0 M279.72 0 C279.72 78.5, 279.72 157, 279.72 234.98 M279.72 0 C279.72 58.16, 279.72 116.33, 279.72 234.98 M279.72 234.98 C185.3 234.98, 90.88 234.98, 0 234.98 M279.72 234.98 C188.14 234.98, 96.55 234.98, 0 234.98 M0 234.98 C0 176.96, 0 118.93, 0 0 M0 234.98 C0 152.93, 0 70.87, 0 0" stroke="#ffffff" stroke-width="2" fill="none"></path></g><g stroke-linecap="round" transform="translate(802.8577173911253 1278.9823174818964) rotate(0 117.95730321961469 70.65178300211295)"><path d="M35.33 0 L200.59 0 L208.87 0.55 L216.04 2.21 L222.12 4.97 L227.08 8.83 L230.95 13.8 L233.71 19.87 L235.36 27.05 L235.91 105.98 L235.36 114.26 L233.71 121.43 L230.95 127.5 L227.08 132.47 L222.12 136.34 L216.04 139.1 L208.87 140.75 L200.59 141.3 L35.33 141.3 L27.05 140.75 L19.87 139.1 L13.8 136.34 L8.83 132.47 L4.97 127.5 L2.21 121.43 L0.55 114.26 L0 35.33 L0.55 27.05 L2.21 19.87 L4.97 13.8 L8.83 8.83 L13.8 4.97 L19.87 2.21 L27.05 0.55 L35.33 0" stroke="none" stroke-width="0" fill="#614a85"></path><path d="M35.33 0 M35.33 0 C81.6 0, 127.88 0, 200.59 0 M35.33 0 C96.01 0, 156.7 0, 200.59 0 M200.59 0 C224.14 0, 235.91 11.78, 235.91 35.33 M200.59 0 C224.14 0, 235.91 11.78, 235.91 35.33 M235.91 35.33 C235.91 62.91, 235.91 90.5, 235.91 105.98 M235.91 35.33 C235.91 52.53, 235.91 69.74, 235.91 105.98 M235.91 105.98 C235.91 129.53, 224.14 141.3, 200.59 141.3 M235.91 105.98 C235.91 129.53, 224.14 141.3, 200.59 141.3 M200.59 141.3 C164.77 141.3, 128.95 141.3, 35.33 141.3 M200.59 141.3 C136.86 141.3, 73.14 141.3, 35.33 141.3 M35.33 141.3 C11.78 141.3, 0 129.53, 0 105.98 M35.33 141.3 C11.78 141.3, 0 129.53, 0 105.98 M0 105.98 C0 87.15, 0 68.31, 0 35.33 M0 105.98 C0 78.99, 0 52, 0 35.33 M0 35.33 C0 11.78, 11.78 0, 35.33 0 M0 35.33 C0 11.78, 11.78 0, 35.33 0" stroke="#ffff" stroke-width="2" fill="none"></path></g><g stroke-linecap="round" transform="translate(1097.8987380827589 1296.2224877281085) rotate(0 89.66300003704305 51.33387922767372)"><path d="M25.67 0 L153.66 0 L159.67 0.4 L164.89 1.6 L169.3 3.61 L172.91 6.42 L175.72 10.03 L177.72 14.44 L178.92 19.65 L179.33 77 L178.92 83.02 L177.72 88.23 L175.72 92.64 L172.91 96.25 L169.3 99.06 L164.89 101.06 L159.67 102.27 L153.66 102.67 L25.67 102.67 L14.44 101.06 L10.03 99.06 L6.42 96.25 L3.61 92.64 L1.6 88.23 L0.4 83.02 L0.4 19.65 L1.6 14.44 L3.61 10.03 L6.42 6.42 L10.03 3.61 L14.44 1.6 L25.67 0" stroke="none" stroke-width="0" fill="#614a85"></path><path d="M25.67 0 M25.67 0 C70.11 0, 114.55 0, 153.66 0 M25.67 0 C57.34 0, 89.01 0, 153.66 0 M153.66 0 C170.77 0, 179.33 8.56, 179.33 25.67 M153.66 0 C170.77 0, 179.33 8.56, 179.33 25.67 M179.33 25.67 C179.33 36.35, 179.33 47.04, 179.33 77 M179.33 25.67 C179.33 36.36, 179.33 47.06, 179.33 77 M179.33 77 C179.33 94.11, 170.77 102.67, 153.66 102.67 M179.33 77 C179.33 94.11, 170.77 102.67, 153.66 102.67 M153.66 102.67 C111.25 102.67, 68.85 102.67, 25.67 102.67 M153.66 102.67 C113.77 102.67, 73.88 102.67, 25.67 102.67 M25.67 102.67 C8.56 102.67, 0 94.11, 0 77 M25.67 102.67 C8.56 102.67, 0 94.11, 0 77 M0 77 C0 57.32, 0 37.63, 0 25.67 M0 77 C0 64.35, 0 51.69, 0 25.67 M0 25.67 C0 8.56, 8.56 0, 25.67 0 M0 25.67 C0 8.56, 8.56 0, 25.67 0" stroke="#ffff" stroke-width="2" fill="none"></path></g><g transform="translate(1229.2684435494575 1209.8366898062138) rotate(0 67.88184387703268 35.22981770833337)"><text x="0" y="56.45963541666673" font-family="Cascadia, Segoe UI Emoji" font-size="58.2151075288292px" fill="#a3cccb" text-anchor="start" style="white-space: pre;" direction="ltr">Heap</text></g><g stroke-linecap="round" transform="translate(514.8232858079705 1127.8818333232718) rotate(0 102.46289582411987 22.601065576183203)"><path d="M0 0 L204.93 0 L204.93 45.2 L0 45.2" stroke="none" stroke-width="0" fill="#614a85"></path><path d="M0 0 C51.32 0, 102.64 0, 204.93 0 M0 0 C69.96 0, 139.92 0, 204.93 0 M204.93 0 C204.93 17.15, 204.93 34.31, 204.93 45.2 M204.93 0 C204.93 14.07, 204.93 28.14, 204.93 45.2 M204.93 45.2 C124.5 45.2, 44.07 45.2, 0 45.2 M204.93 45.2 C134.07 45.2, 63.22 45.2, 0 45.2 M0 45.2 C0 33.04, 0 20.87, 0 0 M0 45.2 C0 33.21, 0 21.21, 0 0" stroke="#a3cccb" stroke-width="2" fill="none"></path></g><g transform="translate(523.2845944706205 1137.2401885103206) rotate(0 96.5 15)"><text x="0" y="24" font-family="Cascadia, Segoe UI Emoji" font-size="25.299420622070947px" fill="#a3cccb" text-anchor="start" style="white-space: pre;" direction="ltr">MyRunnable mr</text></g><g stroke-linecap="round" transform="translate(520.1874268962524 1078.723724043616) rotate(0 85.80599478245313 20.149893701183146)"><path d="M0 0 L171.61 0 L171.61 40.3 L0 40.3" stroke="none" stroke-width="0" fill="#614a85"></path><path d="M0 0 C67.52 0, 135.04 0, 171.61 0 M0 0 C61.03 0, 122.06 0, 171.61 0 M171.61 0 C171.61 14.09, 171.61 28.18, 171.61 40.3 M171.61 0 C171.61 12.86, 171.61 25.73, 171.61 40.3 M171.61 40.3 C109.61 40.3, 47.61 40.3, 0 40.3 M171.61 40.3 C113.34 40.3, 55.07 40.3, 0 40.3 M0 40.3 C0 28.54, 0 16.78, 0 0 M0 40.3 C0 26.75, 0 13.2, 0 0" stroke="#a3cccb" stroke-width="2" fill="none"></path></g><g stroke-linecap="round" transform="translate(521.6868923559423 1025.4735499743567) rotate(0 82.23735638959602 19.988063344040313)"><path d="M0 0 L164.47 0 L164.47 39.98 L0 39.98" stroke="none" stroke-width="0" fill="#614a85"></path><path d="M0 0 C48.41 0, 96.81 0, 164.47 0 M0 0 C63.23 0, 126.47 0, 164.47 0 M164.47 0 C164.47 10.4, 164.47 20.8, 164.47 39.98 M164.47 0 C164.47 15.9, 164.47 31.79, 164.47 39.98 M164.47 39.98 C99.43 39.98, 34.39 39.98, 0 39.98 M164.47 39.98 C120.98 39.98, 77.49 39.98, 0 39.98 M0 39.98 C0 30.86, 0 21.75, 0 0 M0 39.98 C0 24.27, 0 8.57, 0 0" stroke="#a3cccb" stroke-width="2" fill="none"></path></g><g transform="translate(534.7947738647499 1080.9254454108916) rotate(0 70.60136843627265 16.13745564257664)"><text x="0" y="26.274911285153244" font-family="Cascadia, Segoe UI Emoji" font-size="26.895759404294374px" fill="#a3cccb" text-anchor="start" style="white-space: pre;" direction="ltr">Thread t1</text></g><g transform="translate(540.4630122970912 1030.9000611272274) rotate(0 66.43057463046944 15.1841313441073)"><text x="0" y="24.368262688214568" font-family="Cascadia, Segoe UI Emoji" font-size="25.306885573512144px" fill="#a3cccb" text-anchor="start" style="white-space: pre;" direction="ltr">Thread t2</text></g><g transform="translate(1021.9006624204981 640.9161977077554) rotate(0 106.18563988095252 16.129464285714306)"><text x="0" y="26.25892857142862" font-family="Cascadia, Segoe UI Emoji" font-size="25.907514513344978px" fill="#a3cccb" text-anchor="start" style="white-space: pre;" direction="ltr">Thread 1 stack</text></g><g transform="translate(1031.5893772316736 890.7172220710243) rotate(0 110.75235597540791 16.207661850059708)"><text x="0" y="26.415323700119394" font-family="Cascadia, Segoe UI Emoji" font-size="27.012769750099494px" fill="#a3cccb" text-anchor="start" style="white-space: pre;" direction="ltr">Thread 2 stack</text></g><g stroke-linecap="round" transform="translate(1029.9015643646499 705.0405370485687) rotate(0 120.3362377714127 66.13246233444883)"><path d="M0 0 L240.67 0 L240.67 132.26 L0 132.26" stroke="none" stroke-width="0" fill="#016c6b"></path><path d="M0 0 C62.33 0, 124.66 0, 240.67 0 M0 0 C81.71 0, 163.41 0, 240.67 0 M240.67 0 C240.67 39.8, 240.67 79.6, 240.67 132.26 M240.67 0 C240.67 38.17, 240.67 76.34, 240.67 132.26 M240.67 132.26 C186.47 132.26, 132.27 132.26, 0 132.26 M240.67 132.26 C157.2 132.26, 73.73 132.26, 0 132.26 M0 132.26 C0 84.22, 0 36.18, 0 0 M0 132.26 C0 81.01, 0 29.76, 0 0" stroke="#a3cccb" stroke-width="2" fill="none"></path></g><g transform="translate(1048.9158421036705 728.5174764573178) rotate(0 40.81098102871829 16.601077028631124)"><text x="0" y="27.202154057262227" font-family="Cascadia, Segoe UI Emoji" font-size="27.668461714385177px" fill="#a3cccb" text-anchor="start" style="white-space: pre;" direction="ltr">run()</text></g><g transform="translate(603.7310942342215 636.40326147226) rotate(0 122.12250825377305 20.786809915535855)"><text x="0" y="33.573619831071696" font-family="Cascadia, Segoe UI Emoji" font-size="34.64468319255973px" fill="#a3cccb" text-anchor="start" style="white-space: pre;" direction="ltr">main() stack</text></g><g stroke-linecap="round" transform="translate(578.9995888275994 919.9793940453584) rotate(0 123.71188881307921 47.7307696261154)"><path d="M0 0 L247.42 0 L247.42 95.46 L0 95.46" stroke="none" stroke-width="0" fill="#016c6b"></path><path d="M0 0 C85.97 0, 171.94 0, 247.42 0 M0 0 C86.71 0, 173.42 0, 247.42 0 M247.42 0 C247.42 37.77, 247.42 75.55, 247.42 95.46 M247.42 0 C247.42 32.38, 247.42 64.76, 247.42 95.46 M247.42 95.46 C161.51 95.46, 75.59 95.46, 0 95.46 M247.42 95.46 C159.24 95.46, 71.06 95.46, 0 95.46 M0 95.46 C0 73.54, 0 51.62, 0 0 M0 95.46 C0 74.32, 0 53.18, 0 0" stroke="#a3cccb" stroke-width="2" fill="none"></path></g><g transform="translate(604.5481051795286 938.1738280663275) rotate(0 92.23220486111131 18.951822916666686)"><text x="0" y="30.90364583333337" font-family="Cascadia, Segoe UI Emoji" font-size="31.479591302126437px" fill="#a3cccb" text-anchor="start" style="white-space: pre;" direction="ltr">t1.start()</text></g><g stroke-linecap="round" transform="translate(584.7127986552814 806.4294371198869) rotate(0 117.35121172974573 48.80824358444883)"><path d="M0 0 L234.7 0 L234.7 97.62 L0 97.62" stroke="none" stroke-width="0" fill="#016c6b"></path><path d="M0 0 C89.1 0, 178.2 0, 234.7 0 M0 0 C50.26 0, 100.52 0, 234.7 0 M234.7 0 C234.7 36.05, 234.7 72.1, 234.7 97.62 M234.7 0 C234.7 25.89, 234.7 51.78, 234.7 97.62 M234.7 97.62 C161.86 97.62, 89.02 97.62, 0 97.62 M234.7 97.62 C167.12 97.62, 99.54 97.62, 0 97.62 M0 97.62 C0 62.92, 0 28.22, 0 0 M0 97.62 C0 64.81, 0 32.01, 0 0" stroke="#a3cccb" stroke-width="2" fill="none"></path></g><g transform="translate(598.1684715713309 823.9426120076662) rotate(0 92.77083333333326 19.0625)"><text x="0" y="31.12499999999998" font-family="Cascadia, Segoe UI Emoji" font-size="31.663429519967647px" fill="#a3cccb" text-anchor="start" style="white-space: pre;" direction="ltr">t2.start()</text></g><g transform="translate(1030.4392481013952 781.8862011101414) rotate(0 116.15104166666652 20.02604166666663)"><text x="116.15104166666649" y="32.052083333333265" font-family="Cascadia, Segoe UI Emoji" font-size="32.98480334596906px" fill="#a3cccb" text-anchor="middle" style="white-space: pre;" direction="ltr">mr.counter++</text></g><g stroke-linecap="round" transform="translate(1033.3456743131378 951.2803690482172) rotate(0 127.65720131307921 64.14353004278212)"><path d="M0 0 L255.31 0 L255.31 128.29 L0 128.29" stroke="none" stroke-width="0" fill="#016c6b"></path><path d="M0 0 C62.1 0, 124.2 0, 255.31 0 M0 0 C73.95 0, 147.9 0, 255.31 0 M255.31 0 C255.31 42.78, 255.31 85.56, 255.31 128.29 M255.31 0 C255.31 41.87, 255.31 83.74, 255.31 128.29 M255.31 128.29 C155.99 128.29, 56.66 128.29, 0 128.29 M255.31 128.29 C187.93 128.29, 120.54 128.29, 0 128.29 M0 128.29 C0 93.22, 0 58.16, 0 0 M0 128.29 C0 79.4, 0 30.51, 0 0" stroke="#a3cccb" stroke-width="2" fill="none"></path></g><g transform="translate(1075.42604872741 961.0559771911829) rotate(0 43.901692708333485 18.815011160714334)"><text x="0" y="30.63002232142869" font-family="Cascadia, Segoe UI Emoji" font-size="30.221101338541317px" fill="#a3cccb" text-anchor="start" style="white-space: pre;" direction="ltr">run()</text></g><g transform="translate(1045.411013593773 1020.0507866204048) rotate(0 106.57441255064828 18.140325540535855)"><text x="106.57441255064826" y="29.28065108107174" font-family="Cascadia, Segoe UI Emoji" font-size="30.23387590089312px" fill="#a3cccb" text-anchor="middle" style="white-space: pre;" direction="ltr">mr.counter++</text></g><g stroke-linecap="round" transform="translate(559.0925291900635 1297.1618785791213) rotate(0 89.66300003704305 51.33387922767372)"><path d="M25.67 0 L153.66 0 L159.67 0.4 L164.89 1.6 L169.3 3.61 L172.91 6.42 L175.72 10.03 L177.72 14.44 L178.92 19.65 L179.33 77 L178.92 83.02 L177.72 88.23 L175.72 92.64 L172.91 96.25 L169.3 99.06 L164.89 101.06 L159.67 102.27 L153.66 102.67 L25.67 102.67 L14.44 101.06 L10.03 99.06 L6.42 96.25 L3.61 92.64 L1.6 88.23 L0.4 83.02 L0.4 19.65 L1.6 14.44 L3.61 10.03 L6.42 6.42 L10.03 3.61 L14.44 1.6 L25.67 0" stroke="none" stroke-width="0" fill="#614a85"></path><path d="M25.67 0 M25.67 0 C67.48 0, 109.3 0, 153.66 0 M25.67 0 C66.57 0, 107.47 0, 153.66 0 M153.66 0 C170.77 0, 179.33 8.56, 179.33 25.67 M153.66 0 C170.77 0, 179.33 8.56, 179.33 25.67 M179.33 25.67 C179.33 38.31, 179.33 50.96, 179.33 77 M179.33 25.67 C179.33 45.21, 179.33 64.75, 179.33 77 M179.33 77 C179.33 94.11, 170.77 102.67, 153.66 102.67 M179.33 77 C179.33 94.11, 170.77 102.67, 153.66 102.67 M153.66 102.67 C123.67 102.67, 93.69 102.67, 25.67 102.67 M153.66 102.67 C120.94 102.67, 88.21 102.67, 25.67 102.67 M25.67 102.67 C8.56 102.67, 0 94.11, 0 77 M25.67 102.67 C8.56 102.67, 0 94.11, 0 77 M0 77 C0 65.24, 0 53.48, 0 25.67 M0 77 C0 62.15, 0 47.3, 0 25.67 M0 25.67 C0 8.56, 8.56 0, 25.67 0 M0 25.67 C0 8.56, 8.56 0, 25.67 0" stroke="#ffff" stroke-width="2" fill="none"></path></g><g stroke-linecap="round"><g transform="translate(1194.5800251758874 1293.650101041985) rotate(0 3.452558644098417 -93.34323992430154)"><path d="M0 0 C1.15 -31.11, 5.75 -155.57, 6.91 -186.69 M0 0 C1.15 -31.11, 5.75 -155.57, 6.91 -186.69" stroke="#5f3dc4" stroke-width="4" fill="none"></path></g><g transform="translate(1194.5800251758874 1293.650101041985) rotate(0 3.452558644098417 -93.34323992430154)"><path d="M16.12 -158.14 C13.89 -165.03, 11.67 -171.93, 6.91 -186.69 M16.12 -158.14 C13.39 -166.58, 10.67 -175.02, 6.91 -186.69" stroke="#5f3dc4" stroke-width="4" fill="none"></path></g><g transform="translate(1194.5800251758874 1293.650101041985) rotate(0 3.452558644098417 -93.34323992430154)"><path d="M-4.39 -158.89 C-1.66 -165.61, 1.07 -172.32, 6.91 -186.69 M-4.39 -158.89 C-1.05 -167.11, 2.29 -175.33, 6.91 -186.69" stroke="#5f3dc4" stroke-width="4" fill="none"></path></g></g><g stroke-linecap="round"><g transform="translate(1095.8770049400177 1350.8291542692186) rotate(0 -26.59630904625874 -0.7450332065468501)"><path d="M0 0 C-8.87 -0.25, -44.33 -1.24, -53.19 -1.49 M0 0 C-8.87 -0.25, -44.33 -1.24, -53.19 -1.49" stroke="#60cccb" stroke-width="4" fill="none"></path></g><g transform="translate(1095.8770049400177 1350.8291542692186) rotate(0 -26.59630904625874 -0.7450332065468501)"><path d="M-27.95 -9.89 C-36.42 -7.07, -44.9 -4.25, -53.19 -1.49 M-27.95 -9.89 C-35.45 -7.39, -42.95 -4.9, -53.19 -1.49" stroke="#60cccb" stroke-width="4" fill="none"></path></g><g transform="translate(1095.8770049400177 1350.8291542692186) rotate(0 -26.59630904625874 -0.7450332065468501)"><path d="M-28.46 8.31 C-36.76 5.02, -45.07 1.73, -53.19 -1.49 M-28.46 8.31 C-35.81 5.39, -43.16 2.48, -53.19 -1.49" stroke="#60cccb" stroke-width="4" fill="none"></path></g></g><g stroke-linecap="round"><g transform="translate(741.0897699903499 1349.80292263563) rotate(0 30.383973700387514 0.22254178010973646)"><path d="M0 0 C10.13 0.07, 50.64 0.37, 60.77 0.45 M0 0 C10.13 0.07, 50.64 0.37, 60.77 0.45" stroke="#60cccb" stroke-width="4" fill="none"></path></g><g transform="translate(741.0897699903499 1349.80292263563) rotate(0 30.383973700387514 0.22254178010973646)"><path d="M32.5 10.5 C41.54 7.29, 50.57 4.07, 60.77 0.45 M32.5 10.5 C42.22 7.04, 51.93 3.59, 60.77 0.45" stroke="#60cccb" stroke-width="4" fill="none"></path></g><g transform="translate(741.0897699903499 1349.80292263563) rotate(0 30.383973700387514 0.22254178010973646)"><path d="M32.65 -10.02 C41.64 -6.68, 50.63 -3.33, 60.77 0.45 M32.65 -10.02 C42.32 -6.42, 51.98 -2.83, 60.77 0.45" stroke="#60cccb" stroke-width="4" fill="none"></path></g></g><g stroke-linecap="round"><g transform="translate(519.1793305462279 1100.6377516295975) rotate(0 -2.3521643106589636 123.55790537088501)"><path d="M0 0 C-6.77 19.68, -35.68 79.27, -40.59 118.06 C-45.5 156.85, -42.61 211.25, -29.49 232.73 C-16.36 254.22, 26.86 244.59, 38.13 246.96 M0 0 C-6.77 19.68, -35.68 79.27, -40.59 118.06 C-45.5 156.85, -42.61 211.25, -29.49 232.73 C-16.36 254.22, 26.86 244.59, 38.13 246.96" stroke="#60cccb" stroke-width="4" fill="none"></path></g><g transform="translate(519.1793305462279 1100.6377516295975) rotate(0 -2.3521643106589636 123.55790537088501)"><path d="M9.91 257.13 C18.5 254.03, 27.09 250.94, 38.13 246.96 M9.91 257.13 C18.62 253.99, 27.33 250.85, 38.13 246.96" stroke="#60cccb" stroke-width="4" fill="none"></path></g><g transform="translate(519.1793305462279 1100.6377516295975) rotate(0 -2.3521643106589636 123.55790537088501)"><path d="M9.98 236.6 C18.55 239.76, 27.12 242.91, 38.13 246.96 M9.98 236.6 C18.67 239.8, 27.36 243, 38.13 246.96" stroke="#60cccb" stroke-width="4" fill="none"></path></g></g><g stroke-linecap="round"><g transform="translate(688.0853080014699 1051.1995043041945) rotate(0 210.71829292695475 122.4203636526396)"><path d="M0 0 C35.99 3.76, 145.71 -18.72, 215.95 22.55 C286.19 63.82, 387.19 210.12, 421.44 247.63 M0 0 C35.99 3.76, 145.71 -18.72, 215.95 22.55 C286.19 63.82, 387.19 210.12, 421.44 247.63" stroke="#60cccb" stroke-width="4" fill="none"></path></g><g transform="translate(688.0853080014699 1051.1995043041945) rotate(0 210.71829292695475 122.4203636526396)"><path d="M395.76 232.12 C402.68 236.3, 409.6 240.48, 421.44 247.63 M395.76 232.12 C401.94 235.85, 408.12 239.59, 421.44 247.63" stroke="#60cccb" stroke-width="4" fill="none"></path></g><g transform="translate(688.0853080014699 1051.1995043041945) rotate(0 210.71829292695475 122.4203636526396)"><path d="M411.74 219.24 C414.35 226.89, 416.97 234.54, 421.44 247.63 M411.74 219.24 C414.08 226.08, 416.41 232.91, 421.44 247.63" stroke="#60cccb" stroke-width="4" fill="none"></path></g></g><g transform="translate(620.7169011479259 1309.6000669751497) rotate(0 43.91812614253513 30.11528649773834)"><text x="0" y="24.115286497738325" font-family="Cascadia, Segoe UI Emoji" font-size="25.09607208144862px" fill="#a3cccb" text-anchor="start" style="white-space: pre;" direction="ltr">Thread</text><text x="0" y="54.23057299547665" font-family="Cascadia, Segoe UI Emoji" font-size="25.09607208144862px" fill="#a3cccb" text-anchor="start" style="white-space: pre;" direction="ltr">Object</text></g><g transform="translate(1148.3046471410585 1314.366031415032) rotate(0 45.276904354340786 31.047020128690804)"><text x="0" y="25.04702012869078" font-family="Cascadia, Segoe UI Emoji" font-size="25.87251677390899px" fill="#a3cccb" text-anchor="start" style="white-space: pre;" direction="ltr">Thread</text><text x="0" y="56.09404025738156" font-family="Cascadia, Segoe UI Emoji" font-size="25.87251677390899px" fill="#a3cccb" text-anchor="start" style="white-space: pre;" direction="ltr">Object</text></g><g transform="translate(871.8147116851692 1296.9283473904134) rotate(0 69.33415211427905 28.44478035457604)"><text x="0" y="22.44478035457602" font-family="Cascadia, Segoe UI Emoji" font-size="23.703983628813365px" fill="#a3cccb" text-anchor="start" style="white-space: pre;" direction="ltr">MyRunnable</text><text x="0" y="50.88956070915204" font-family="Cascadia, Segoe UI Emoji" font-size="23.703983628813365px" fill="#a3cccb" text-anchor="start" style="white-space: pre;" direction="ltr">Object</text></g><g transform="translate(806.2311553347649 1363.364288328231) rotate(0 111.08962673611086 15.776041666666629)"><text x="0" y="25.55208333333327" font-family="Cascadia, Segoe UI Emoji" font-size="25.339839017734644px" fill="#a3cccb" text-anchor="start" style="white-space: pre;" direction="ltr">int counter = 0</text></g><g stroke-linecap="round" transform="translate(449.8431294023062 10) rotate(0 308.8099888392858 194.87862723214283)"><path d="M97.44 0 L531.98 0.38 L553.29 3.43 L562.81 6.09 L571.56 9.52 L579.56 13.7 L586.79 18.65 L593.26 24.36 L598.97 30.83 L603.92 38.06 L608.1 46.06 L614.19 64.33 L617.24 85.64 L617.24 304.12 L616.1 315.16 L611.53 334.95 L608.1 343.7 L603.92 351.7 L598.97 358.93 L593.26 365.4 L586.79 371.11 L579.56 376.05 L571.56 380.24 L553.29 386.33 L543.02 388.23 L520.18 389.76 L85.64 389.38 L74.6 388.23 L54.81 383.67 L46.06 380.24 L38.06 376.05 L30.83 371.11 L24.36 365.4 L18.65 358.93 L13.7 351.7 L9.52 343.7 L3.43 325.43 L0.38 304.12 L0 97.44 L1.52 74.6 L6.09 54.81 L9.52 46.06 L13.7 38.06 L18.65 30.83 L24.36 24.36 L30.83 18.65 L38.06 13.7 L46.06 9.52 L54.81 6.09 L74.6 1.52 L97.44 0" stroke="none" stroke-width="0" fill="#303940"></path><path d="M97.44 0 M97.44 0 C229.62 0, 361.81 0, 520.18 0 M97.44 0 C263.47 0, 429.51 0, 520.18 0 M520.18 0 C585.14 0, 617.62 32.48, 617.62 97.44 M520.18 0 C585.14 0, 617.62 32.48, 617.62 97.44 M617.62 97.44 C617.62 164.69, 617.62 231.95, 617.62 292.32 M617.62 97.44 C617.62 175.3, 617.62 253.16, 617.62 292.32 M617.62 292.32 C617.62 357.28, 585.14 389.76, 520.18 389.76 M617.62 292.32 C617.62 357.28, 585.14 389.76, 520.18 389.76 M520.18 389.76 C358.16 389.76, 196.13 389.76, 97.44 389.76 M520.18 389.76 C375.94 389.76, 231.69 389.76, 97.44 389.76 M97.44 389.76 C32.48 389.76, 0 357.28, 0 292.32 M97.44 389.76 C32.48 389.76, 0 357.28, 0 292.32 M0 292.32 C0 250.86, 0 209.41, 0 97.44 M0 292.32 C0 236.98, 0 181.65, 0 97.44 M0 97.44 C0 32.48, 32.48 0, 97.44 0 M0 97.44 C0 32.48, 32.48 0, 97.44 0" stroke="#ffffff" stroke-width="4" fill="none"></path></g><g stroke-linecap="round" transform="translate(17.625185453895256 334.82496279761915) rotate(0 165.77408854166663 123.37554530203474)"><path d="M61.69 0 L277.33 0.24 L290.82 2.17 L302.39 6.02 L312.03 11.81 L316.13 15.42 L322.87 24.1 L327.69 34.7 L330.58 47.23 L331.55 61.69 L331.31 192.53 L329.38 206.03 L327.69 212.05 L322.87 222.65 L316.13 231.33 L307.45 238.08 L296.85 242.9 L284.32 245.79 L269.86 246.75 L54.22 246.51 L40.72 244.58 L29.16 240.73 L19.52 234.94 L15.42 231.33 L11.81 227.23 L6.02 217.59 L2.17 206.03 L0.24 192.53 L0 61.69 L0.96 47.23 L2.17 40.72 L3.86 34.7 L8.67 24.1 L11.81 19.52 L19.52 11.81 L24.1 8.67 L34.7 3.86 L47.23 0.96 L61.69 0" stroke="none" stroke-width="0" fill="#303940"></path><path d="M61.69 0 M61.69 0 C114.99 0, 168.29 0, 269.86 0 M61.69 0 C135 0, 208.32 0, 269.86 0 M269.86 0 C310.99 0, 331.55 20.56, 331.55 61.69 M269.86 0 C310.99 0, 331.55 20.56, 331.55 61.69 M331.55 61.69 C331.55 96.14, 331.55 130.6, 331.55 185.06 M331.55 61.69 C331.55 97.46, 331.55 133.22, 331.55 185.06 M331.55 185.06 C331.55 226.19, 310.99 246.75, 269.86 246.75 M331.55 185.06 C331.55 226.19, 310.99 246.75, 269.86 246.75 M269.86 246.75 C208.58 246.75, 147.29 246.75, 61.69 246.75 M269.86 246.75 C204.23 246.75, 138.6 246.75, 61.69 246.75 M61.69 246.75 C20.56 246.75, 0 226.19, 0 185.06 M61.69 246.75 C20.56 246.75, 0 226.19, 0 185.06 M0 185.06 C0 137.05, 0 89.03, 0 61.69 M0 185.06 C0 155.41, 0 125.75, 0 61.69 M0 61.69 C0 20.56, 20.56 0, 61.69 0 M0 61.69 C0 20.56, 20.56 0, 61.69 0" stroke="#ffffff" stroke-width="4" fill="none"></path></g><g transform="translate(620.0421698526516 18.455656602321312) rotate(0 131.96149553571422 29.97091593523001)"><text x="0" y="47.941831870460014" font-family="Cascadia, Segoe UI Emoji" font-size="50.06562994692021px" fill="#a3cccb" text-anchor="start" style="white-space: pre;" direction="ltr">CPU Core </text></g><g stroke-linecap="round"><g transform="translate(698.0762217681399 1102.6084673512603) rotate(0 105.62886655116722 87.68692506531801)"><path d="M0 0 C35.21 29.23, 176.05 146.14, 211.26 175.37 M0 0 C35.21 29.23, 176.05 146.14, 211.26 175.37" stroke="#60cccb" stroke-width="4" fill="none"></path></g><g transform="translate(698.0762217681399 1102.6084673512603) rotate(0 105.62886655116722 87.68692506531801)"><path d="M183.01 165.26 C191.41 168.27, 199.81 171.28, 211.26 175.37 M183.01 165.26 C194.24 169.28, 205.47 173.3, 211.26 175.37" stroke="#60cccb" stroke-width="4" fill="none"></path></g><g transform="translate(698.0762217681399 1102.6084673512603) rotate(0 105.62886655116722 87.68692506531801)"><path d="M196.12 149.47 C200.62 157.18, 205.13 164.88, 211.26 175.37 M196.12 149.47 C202.14 159.77, 208.16 170.07, 211.26 175.37" stroke="#60cccb" stroke-width="4" fill="none"></path></g></g><g stroke-linecap="round" transform="translate(515.2613072577428 219.42011624928) rotate(0 237.5293977894064 77.15974486183129)"><path d="M0 0 L475.06 0 L475.06 154.32 L0 154.32" stroke="none" stroke-width="0" fill="#23475c"></path><path d="M0 0 C186.08 0, 372.16 0, 475.06 0 M0 0 C101 0, 202 0, 475.06 0 M475.06 0 C475.06 51.73, 475.06 103.46, 475.06 154.32 M475.06 0 C475.06 56.97, 475.06 113.94, 475.06 154.32 M475.06 154.32 C332.32 154.32, 189.58 154.32, 0 154.32 M475.06 154.32 C327.09 154.32, 179.12 154.32, 0 154.32 M0 154.32 C0 94.75, 0 35.19, 0 0 M0 154.32 C0 100.2, 0 46.09, 0 0" stroke="#ffffff" stroke-width="2" fill="none"></path></g><g stroke-linecap="round"><g transform="translate(519.6892665550854 295.9805927579366) rotate(0 232.90178571428555 1.3839285714285836)"><path d="M0 0 C77.63 0.46, 388.17 2.31, 465.8 2.77 M0 0 C77.63 0.46, 388.17 2.31, 465.8 2.77" stroke="#60cccb" stroke-width="4" fill="none"></path></g></g><g stroke-linecap="round" transform="translate(525.2404818328632 308.3131820436509) rotate(0 227.109375 27.045200892857153)"><path d="M0 0 L454.22 0 L454.22 54.09 L0 54.09" stroke="none" stroke-width="0" fill="#614a85"></path><path d="M0 0 C168.32 0, 336.64 0, 454.22 0 M0 0 C171.47 0, 342.94 0, 454.22 0 M454.22 0 C454.22 19.88, 454.22 39.75, 454.22 54.09 M454.22 0 C454.22 18.87, 454.22 37.73, 454.22 54.09 M454.22 54.09 C321.8 54.09, 189.39 54.09, 0 54.09 M454.22 54.09 C326.38 54.09, 198.55 54.09, 0 54.09 M0 54.09 C0 41.93, 0 29.77, 0 0 M0 54.09 C0 41.87, 0 29.64, 0 0" stroke="#60cccb" stroke-width="4" fill="none"></path></g><g stroke-linecap="round"><g transform="translate(718.5257620907996 313.5252356150795) rotate(0 0.4324776785713311 22.293526785714278)"><path d="M0 0 C0.14 7.43, 0.72 37.16, 0.86 44.59 M0 0 C0.14 7.43, 0.72 37.16, 0.86 44.59" stroke="#60cccb" stroke-width="4" fill="none"></path></g></g><g stroke-linecap="round"><g transform="translate(827.4878156622281 310.86898561507945) rotate(0 0.4324776785713311 22.293526785714278)"><path d="M0 0 C0.14 7.43, 0.72 37.16, 0.86 44.59 M0 0 C0.14 7.43, 0.72 37.16, 0.86 44.59" stroke="#60cccb" stroke-width="4" fill="none"></path></g></g><g stroke-linecap="round"><g transform="translate(900.8974138765138 308.5642981150795) rotate(0 -0.083705357143117 23.775111607142847)"><path d="M0 0 C-0.03 7.93, -0.14 39.63, -0.17 47.55 M0 0 C-0.03 7.93, -0.14 39.63, -0.17 47.55" stroke="#60cccb" stroke-width="4" fill="none"></path></g></g><g transform="translate(598.6484679439745 227.946986607143) rotate(0 155.77430555555566 49.19188596491236)"><text x="311.54861111111137" y="39.19188596491236" font-family="Cascadia, Segoe UI Emoji" font-size="40.993238304093616px" fill="#60cccb" text-anchor="end" style="white-space: pre;" direction="ltr">CPU Registers</text><text x="311.54861111111137" y="88.38377192982472" font-family="Cascadia, Segoe UI Emoji" font-size="40.993238304093616px" fill="#60cccb" text-anchor="end" style="white-space: pre;" direction="ltr"></text></g><g transform="translate(86.27679847400918 388.71735437485455) rotate(0 145.32540136905448 53.99086118974164)"><text x="0" y="42.99086118974164" font-family="Cascadia, Segoe UI Emoji" font-size="45.05144128068565px" fill="#a3cccb" text-anchor="start" style="white-space: pre;" direction="ltr">CPU Cache</text><text x="0" y="96.98172237948329" font-family="Cascadia, Segoe UI Emoji" font-size="45.05144128068565px" fill="#a3cccb" text-anchor="start" style="white-space: pre;" direction="ltr">(L1,L2,L3) </text></g><g stroke-linecap="round" transform="translate(497.6718841904194 688.4658139552338) rotate(0 188.1194408964127 44.08168108444882)"><path d="M0 0 L376.24 0 L376.24 88.16 L0 88.16" stroke="none" stroke-width="0" fill="#016c6b"></path><path d="M0 0 C93.58 0, 187.15 0, 376.24 0 M0 0 C113.78 0, 227.56 0, 376.24 0 M376.24 0 C376.24 18.67, 376.24 37.33, 376.24 88.16 M376.24 0 C376.24 27.28, 376.24 54.56, 376.24 88.16 M376.24 88.16 C294.51 88.16, 212.78 88.16, 0 88.16 M376.24 88.16 C277.1 88.16, 177.96 88.16, 0 88.16 M0 88.16 C0 58, 0 27.83, 0 0 M0 88.16 C0 63.79, 0 39.42, 0 0" stroke="#a3cccb" stroke-width="2" fill="none"></path></g><g transform="translate(525.4944500868314 715.4413752480159) rotate(0 157.5 19)"><text x="0" y="31" font-family="Cascadia, Segoe UI Emoji" font-size="31.663429519967647px" fill="#a3cccb" text-anchor="start" style="white-space: pre;" direction="ltr">mr.printCounter()</text></g><g stroke-linecap="round"><g transform="translate(671.4358563368319 1409.3606460813492) rotate(0 383.0631119791667 -312.7690885416666)"><path d="M0 0 C25.51 7.84, 38.8 40.39, 153.09 47.03 C267.37 53.67, 583.75 79.85, 685.7 39.83 C787.64 -0.19, 757.5 -81.88, 764.75 -193.07 C772 -304.27, 751.7 -545.01, 729.19 -627.34 C706.69 -709.68, 646.29 -677.14, 629.71 -687.1 M0 0 C25.51 7.84, 38.8 40.39, 153.09 47.03 C267.37 53.67, 583.75 79.85, 685.7 39.83 C787.64 -0.19, 757.5 -81.88, 764.75 -193.07 C772 -304.27, 751.7 -545.01, 729.19 -627.34 C706.69 -709.68, 646.29 -677.14, 629.71 -687.1" stroke="#862e9c" stroke-width="4" fill="none"></path></g><g transform="translate(671.4358563368319 1409.3606460813492) rotate(0 383.0631119791667 -312.7690885416666)"><path d="M658.55 -695.35 C652.63 -693.65, 646.71 -691.96, 629.71 -687.1 M658.55 -695.35 C651.77 -693.41, 644.99 -691.47, 629.71 -687.1" stroke="#862e9c" stroke-width="4" fill="none"></path></g><g transform="translate(671.4358563368319 1409.3606460813492) rotate(0 383.0631119791667 -312.7690885416666)"><path d="M657.1 -674.88 C651.48 -677.39, 645.86 -679.89, 629.71 -687.1 M657.1 -674.88 C650.66 -677.75, 644.22 -680.63, 629.71 -687.1" stroke="#862e9c" stroke-width="4" fill="none"></path></g></g><g stroke-linecap="round" transform="translate(534.3166147974262 86.63868023737501) rotate(0 213.14463216440663 53.61714813564083)"><path d="M0 0 L426.29 0 L426.29 107.23 L0 107.23" stroke="none" stroke-width="0" fill="#23475c"></path><path d="M0 0 C123.83 0, 247.65 0, 426.29 0 M0 0 C104.15 0, 208.31 0, 426.29 0 M426.29 0 C426.29 24.26, 426.29 48.52, 426.29 107.23 M426.29 0 C426.29 37.85, 426.29 75.71, 426.29 107.23 M426.29 107.23 C302.42 107.23, 178.55 107.23, 0 107.23 M426.29 107.23 C288.3 107.23, 150.32 107.23, 0 107.23 M0 107.23 C0 82.58, 0 57.93, 0 0 M0 107.23 C0 78.65, 0 50.07, 0 0" stroke="#ffffff" stroke-width="2" fill="none"></path></g><g transform="translate(660.0407670511177 102.13387077111912) rotate(0 94.376953125 32.17396129261368)"><text x="0" y="51.347922585227366" font-family="Cascadia, Segoe UI Emoji" font-size="53.69365466675102px" fill="#a3cccb" text-anchor="start" style="white-space: pre;" direction="ltr">Thread</text></g><g stroke-linecap="round" transform="translate(1585.811507378498 423.0000747376478) rotate(0 165.77408854166652 123.37554530203474)"><path d="M61.69 0 L277.33 0.24 L290.82 2.17 L302.39 6.02 L312.03 11.81 L316.13 15.42 L322.87 24.1 L327.69 34.7 L330.58 47.23 L331.55 61.69 L331.31 192.53 L329.38 206.03 L327.69 212.05 L322.87 222.65 L316.13 231.33 L307.45 238.08 L296.85 242.9 L284.32 245.79 L269.86 246.75 L54.22 246.51 L40.72 244.58 L29.16 240.73 L19.52 234.94 L15.42 231.33 L11.81 227.23 L6.02 217.59 L2.17 206.03 L0.24 192.53 L0 61.69 L0.96 47.23 L2.17 40.72 L3.86 34.7 L8.67 24.1 L11.81 19.52 L19.52 11.81 L24.1 8.67 L34.7 3.86 L47.23 0.96 L61.69 0" stroke="none" stroke-width="0" fill="#303940"></path><path d="M61.69 0 M61.69 0 C129.83 0, 197.97 0, 269.86 0 M61.69 0 C137.4 0, 213.1 0, 269.86 0 M269.86 0 C310.99 0, 331.55 20.56, 331.55 61.69 M269.86 0 C310.99 0, 331.55 20.56, 331.55 61.69 M331.55 61.69 C331.55 100.85, 331.55 140.02, 331.55 185.06 M331.55 61.69 C331.55 110.41, 331.55 159.13, 331.55 185.06 M331.55 185.06 C331.55 226.19, 310.99 246.75, 269.86 246.75 M331.55 185.06 C331.55 226.19, 310.99 246.75, 269.86 246.75 M269.86 246.75 C224.78 246.75, 179.7 246.75, 61.69 246.75 M269.86 246.75 C211.3 246.75, 152.75 246.75, 61.69 246.75 M61.69 246.75 C20.56 246.75, 0 226.19, 0 185.06 M61.69 246.75 C20.56 246.75, 0 226.19, 0 185.06 M0 185.06 C0 138.7, 0 92.34, 0 61.69 M0 185.06 C0 151.35, 0 117.63, 0 61.69 M0 61.69 C0 20.56, 20.56 0, 61.69 0 M0 61.69 C0 20.56, 20.56 0, 61.69 0" stroke="#ffffff" stroke-width="4" fill="none"></path></g><g transform="translate(1617.0412453986123 439.06694548154996) rotate(0 145.3254013690546 53.99086118974164)"><text x="0" y="42.99086118974164" font-family="Cascadia, Segoe UI Emoji" font-size="45.05144128068565px" fill="#a3cccb" text-anchor="start" style="white-space: pre;" direction="ltr">CPU Cache</text><text x="0" y="96.98172237948329" font-family="Cascadia, Segoe UI Emoji" font-size="45.05144128068565px" fill="#a3cccb" text-anchor="start" style="white-space: pre;" direction="ltr">(L1,L2,L3) </text></g><g stroke-linecap="round" transform="translate(358.8707521701649 591.8280939980157) rotate(0 567.880859375 482.41536458333354)"><path d="M0 0 L1135.76 0 L1135.76 964.83 L0 964.83" stroke="none" stroke-width="0" fill="#4444"></path><path d="M0 0 C407.91 0, 815.81 0, 1135.76 0 M1135.76 0 C1135.76 308.25, 1135.76 616.5, 1135.76 964.83 M1135.76 964.83 C885.52 964.83, 635.28 964.83, 0 964.83 M0 964.83 C0 667.56, 0 370.29, 0 0" stroke="#0b7285" stroke-width="4.5" fill="none" stroke-dasharray="8 12"></path></g><g stroke-linecap="round" transform="translate(1100.0509977058787 11.422123015873012) rotate(0 308.8099888392858 194.87862723214283)"><path d="M97.44 0 L531.98 0.38 L553.29 3.43 L562.81 6.09 L571.56 9.52 L579.56 13.7 L586.79 18.65 L593.26 24.36 L598.97 30.83 L603.92 38.06 L608.1 46.06 L614.19 64.33 L617.24 85.64 L617.24 304.12 L616.1 315.16 L611.53 334.95 L608.1 343.7 L603.92 351.7 L598.97 358.93 L593.26 365.4 L586.79 371.11 L579.56 376.05 L571.56 380.24 L553.29 386.33 L543.02 388.23 L520.18 389.76 L85.64 389.38 L74.6 388.23 L54.81 383.67 L46.06 380.24 L38.06 376.05 L30.83 371.11 L24.36 365.4 L18.65 358.93 L13.7 351.7 L9.52 343.7 L3.43 325.43 L0.38 304.12 L0 97.44 L1.52 74.6 L6.09 54.81 L9.52 46.06 L13.7 38.06 L18.65 30.83 L24.36 24.36 L30.83 18.65 L38.06 13.7 L46.06 9.52 L54.81 6.09 L74.6 1.52 L97.44 0" stroke="none" stroke-width="0" fill="#303940"></path><path d="M97.44 0 M97.44 0 C263.85 0, 430.26 0, 520.18 0 M97.44 0 C208.03 0, 318.63 0, 520.18 0 M520.18 0 C585.14 0, 617.62 32.48, 617.62 97.44 M520.18 0 C585.14 0, 617.62 32.48, 617.62 97.44 M617.62 97.44 C617.62 172.19, 617.62 246.94, 617.62 292.32 M617.62 97.44 C617.62 159.98, 617.62 222.51, 617.62 292.32 M617.62 292.32 C617.62 357.28, 585.14 389.76, 520.18 389.76 M617.62 292.32 C617.62 357.28, 585.14 389.76, 520.18 389.76 M520.18 389.76 C399.68 389.76, 279.18 389.76, 97.44 389.76 M520.18 389.76 C410.05 389.76, 299.92 389.76, 97.44 389.76 M97.44 389.76 C32.48 389.76, 0 357.28, 0 292.32 M97.44 389.76 C32.48 389.76, 0 357.28, 0 292.32 M0 292.32 C0 219.85, 0 147.38, 0 97.44 M0 292.32 C0 244.42, 0 196.53, 0 97.44 M0 97.44 C0 32.48, 32.48 0, 97.44 0 M0 97.44 C0 32.48, 32.48 0, 97.44 0" stroke="#ffffff" stroke-width="4" fill="none"></path></g><g transform="translate(1270.8262100312245 19.877779618194324) rotate(0 131.96149553571422 29.97091593523001)"><text x="0" y="47.941831870460014" font-family="Cascadia, Segoe UI Emoji" font-size="50.06562994692021px" fill="#a3cccb" text-anchor="start" style="white-space: pre;" direction="ltr">CPU Core </text></g><g stroke-linecap="round" transform="translate(1166.392569658538 220.73264725126404) rotate(0 237.5293977894064 77.15974486183129)"><path d="M0 0 L475.06 0 L475.06 154.32 L0 154.32" stroke="none" stroke-width="0" fill="#23475c"></path><path d="M0 0 C110.23 0, 220.45 0, 475.06 0 M0 0 C106.2 0, 212.39 0, 475.06 0 M475.06 0 C475.06 59.35, 475.06 118.71, 475.06 154.32 M475.06 0 C475.06 58.11, 475.06 116.23, 475.06 154.32 M475.06 154.32 C313.7 154.32, 152.34 154.32, 0 154.32 M475.06 154.32 C344.58 154.32, 214.1 154.32, 0 154.32 M0 154.32 C0 93.75, 0 33.18, 0 0 M0 154.32 C0 93.75, 0 33.17, 0 0" stroke="#ffffff" stroke-width="2" fill="none"></path></g><g stroke-linecap="round"><g transform="translate(1170.4733067336579 297.9788876488096) rotate(0 232.90178571428555 1.3839285714285836)"><path d="M0 0 C77.63 0.46, 388.17 2.31, 465.8 2.77 M0 0 C77.63 0.46, 388.17 2.31, 465.8 2.77" stroke="#60cccb" stroke-width="4" fill="none"></path></g></g><g stroke-linecap="round" transform="translate(1175.7955723586579 309.1591331845239) rotate(0 227.109375 27.045200892857153)"><path d="M0 0 L454.22 0 L454.22 54.09 L0 54.09" stroke="none" stroke-width="0" fill="#614a85"></path><path d="M0 0 C132.69 0, 265.39 0, 454.22 0 M0 0 C143.44 0, 286.88 0, 454.22 0 M454.22 0 C454.22 20.41, 454.22 40.82, 454.22 54.09 M454.22 0 C454.22 19.37, 454.22 38.74, 454.22 54.09 M454.22 54.09 C318.56 54.09, 182.9 54.09, 0 54.09 M454.22 54.09 C313.68 54.09, 173.15 54.09, 0 54.09 M0 54.09 C0 34.4, 0 14.71, 0 0 M0 54.09 C0 32.93, 0 11.77, 0 0" stroke="#60cccb" stroke-width="4" fill="none"></path></g><g stroke-linecap="round"><g transform="translate(1390.3762085193725 310.73837425595246) rotate(0 0.4324776785713311 22.293526785714278)"><path d="M0 0 C0.14 7.43, 0.72 37.16, 0.86 44.59 M0 0 C0.14 7.43, 0.72 37.16, 0.86 44.59" stroke="#60cccb" stroke-width="4" fill="none"></path></g></g><g stroke-linecap="round"><g transform="translate(1478.271855840801 312.86728050595246) rotate(0 0.4324776785713311 22.293526785714278)"><path d="M0 0 C0.14 7.43, 0.72 37.16, 0.86 44.59 M0 0 C0.14 7.43, 0.72 37.16, 0.86 44.59" stroke="#60cccb" stroke-width="4" fill="none"></path></g></g><g stroke-linecap="round"><g transform="translate(1551.6814540550872 310.56259300595246) rotate(0 -0.083705357143117 23.775111607142847)"><path d="M0 0 C-0.03 7.93, -0.14 39.63, -0.17 47.55 M0 0 C-0.03 7.93, -0.14 39.63, -0.17 47.55" stroke="#60cccb" stroke-width="4" fill="none"></path></g></g><g transform="translate(1249.2020393725475 229.94528149801607) rotate(0 155.77430555555566 49.19188596491236)"><text x="311.54861111111137" y="39.19188596491236" font-family="Cascadia, Segoe UI Emoji" font-size="40.993238304093616px" fill="#60cccb" text-anchor="end" style="white-space: pre;" direction="ltr">CPU Registers</text><text x="311.54861111111137" y="88.38377192982472" font-family="Cascadia, Segoe UI Emoji" font-size="40.993238304093616px" fill="#60cccb" text-anchor="end" style="white-space: pre;" direction="ltr"></text></g><g stroke-linecap="round" transform="translate(1185.100654975999 88.63697512824803) rotate(0 213.14463216440663 53.61714813564083)"><path d="M0 0 L426.29 0 L426.29 107.23 L0 107.23" stroke="none" stroke-width="0" fill="#23475c"></path><path d="M0 0 C97.29 0, 194.57 0, 426.29 0 M0 0 C116.69 0, 233.38 0, 426.29 0 M426.29 0 C426.29 40.14, 426.29 80.29, 426.29 107.23 M426.29 0 C426.29 31.03, 426.29 62.06, 426.29 107.23 M426.29 107.23 C315.11 107.23, 203.92 107.23, 0 107.23 M426.29 107.23 C268.03 107.23, 109.78 107.23, 0 107.23 M0 107.23 C0 64.75, 0 22.27, 0 0 M0 107.23 C0 83.83, 0 60.42, 0 0" stroke="#ffffff" stroke-width="2" fill="none"></path></g><g transform="translate(1310.8248072296906 104.13216566199213) rotate(0 88 30)"><text x="0" y="48" font-family="Cascadia, Segoe UI Emoji" font-size="50.06562994692021px" fill="#a3cccb" text-anchor="start" style="white-space: pre;" direction="ltr">Thread</text></g><g stroke-linecap="round"><g transform="translate(821.902436197935 962.5550905257938) rotate(0 95.73893229166674 -98.34635416666666)"><path d="M0 0 C31.91 -32.78, 159.56 -163.91, 191.48 -196.69" stroke="#e67700" stroke-width="4.5" fill="none" stroke-dasharray="8 12"></path></g><g transform="translate(821.902436197935 962.5550905257938) rotate(0 95.73893229166674 -98.34635416666666)"><path d="M191.48 -196.69 L186.54 -182.53 L177.45 -191.37 L191.48 -196.69" stroke="none" stroke-width="0" fill="#e67700" fill-rule="evenodd"></path><path d="M191.48 -196.69 C190.29 -193.29, 189.1 -189.88, 186.54 -182.53 M186.54 -182.53 C182.93 -186.04, 179.33 -189.54, 177.45 -191.37 M177.45 -191.37 C182.61 -193.33, 187.77 -195.29, 191.48 -196.69 M191.48 -196.69 C191.48 -196.69, 191.48 -196.69, 191.48 -196.69" stroke="#e67700" stroke-width="4.5" fill="none"></path></g></g><g stroke-linecap="round"><g transform="translate(362.84727401958344 385.4055679563495) rotate(0 77.35407848500904 -30.9565831945472)"><path d="M0 0 C25.78 -10.32, 128.92 -51.59, 154.71 -61.91" stroke="#e67700" stroke-width="4.5" fill="none" stroke-dasharray="8 12"></path></g><g transform="translate(362.84727401958344 385.4055679563495) rotate(0 77.35407848500904 -30.9565831945472)"><path d="M154.71 -61.91 L144.44 -50.98 L139.73 -62.75 L154.71 -61.91" stroke="none" stroke-width="0" fill="#e67700" fill-rule="evenodd"></path><path d="M154.71 -61.91 C152.37 -59.42, 150.03 -56.93, 144.44 -50.98 M144.44 -50.98 C142.71 -55.31, 140.97 -59.65, 139.73 -62.75 M139.73 -62.75 C143.96 -62.51, 148.18 -62.28, 154.71 -61.91 M154.71 -61.91 C154.71 -61.91, 154.71 -61.91, 154.71 -61.91" stroke="#e67700" stroke-width="4.5" fill="none"></path></g></g><g transform="translate(528.4579917534907 319.94616469407595) rotate(0 94.38498263888914 17.55999677002586)"><text x="188.76996527777808" y="28.11999354005171" font-family="Cascadia, Segoe UI Emoji" font-size="29.266661283376433px" fill="#a3cccb" text-anchor="end" style="white-space: pre;" direction="ltr">counter = 1</text></g><g stroke-linecap="round"><g transform="translate(1585.5016115451608 980.5192271865019) rotate(0 212.4175186185962 1.3152406974244002)"><path d="M0 0 C70.81 0.44, 354.03 2.19, 424.84 2.63" stroke="#e67700" stroke-width="4.5" fill="none" stroke-dasharray="8 12"></path></g><g transform="translate(1585.5016115451608 980.5192271865019) rotate(0 212.4175186185962 1.3152406974244002)"><path d="M424.84 2.63 L411.2 8.89 L411.28 -3.79 L424.84 2.63" stroke="none" stroke-width="0" fill="#e67700" fill-rule="evenodd"></path><path d="M424.84 2.63 C420.7 4.53, 416.57 6.42, 411.2 8.89 M411.2 8.89 C411.22 5.19, 411.25 1.5, 411.28 -3.79 M411.28 -3.79 C415.2 -1.94, 419.12 -0.08, 424.84 2.63 M424.84 2.63 C424.84 2.63, 424.84 2.63, 424.84 2.63" stroke="#e67700" stroke-width="4.5" fill="none"></path></g></g><g transform="translate(1561.0968263889085 800.5181981646838) rotate(0 274.5 24.5)"><text x="549" y="39" font-family="Cascadia, Segoe UI Emoji" font-size="40.72753906249997px" fill="#60cccb" text-anchor="end" style="white-space: pre;" direction="ltr">Program Execution Order</text></g><g stroke-linecap="round" transform="translate(1542.0348146701594 781.1783544146838) rotate(0 303.2373046875 381.16210937499994)"><path d="M0 0 C131.92 0, 263.85 0, 606.47 0 M606.47 0 C606.47 222.62, 606.47 445.25, 606.47 762.32 M606.47 762.32 C416.56 762.32, 226.65 762.32, 0 762.32 M0 762.32 C0 597.04, 0 431.75, 0 0" stroke="#60cccb" stroke-width="4.5" fill="none" stroke-dasharray="1.5 10"></path></g><g transform="translate(1739.338366024218 893.6724950396838) rotate(0 88.5 22.5)"><text x="177" y="36" font-family="Cascadia, Segoe UI Emoji" font-size="37.76092918212647px" fill="#a3cccb" text-anchor="end" style="white-space: pre;" direction="ltr">1st Step</text></g><g transform="translate(1731.27437801397 1024.1227083637384) rotate(0 88.5 22.5)"><text x="177" y="36" font-family="Cascadia, Segoe UI Emoji" font-size="37.76092918212647px" fill="#a3cccb" text-anchor="end" style="white-space: pre;" direction="ltr">2nd Step</text></g><g stroke-linecap="round"><g transform="translate(1594.6659071626536 1101.9444939255898) rotate(0 212.6362686185962 1.0183656974243718)"><path d="M0 0 C70.88 0.34, 354.39 1.7, 425.27 2.04 M0 0 C70.88 0.34, 354.39 1.7, 425.27 2.04" stroke="#e67700" stroke-width="4" fill="none"></path></g><g transform="translate(1594.6659071626536 1101.9444939255898) rotate(0 212.6362686185962 1.0183656974243718)"><path d="M425.27 2.04 L411.65 8.31 L411.71 -4.37 L425.27 2.04" stroke="none" stroke-width="0" fill="#e67700" fill-rule="evenodd"></path><path d="M425.27 2.04 C419.98 4.47, 414.69 6.91, 411.65 8.31 M425.27 2.04 C421.29 3.87, 417.31 5.7, 411.65 8.31 M411.65 8.31 C411.66 5.33, 411.68 2.35, 411.71 -4.37 M411.65 8.31 C411.67 3.97, 411.69 -0.37, 411.71 -4.37 M411.71 -4.37 C415.09 -2.77, 418.47 -1.18, 425.27 2.04 M411.71 -4.37 C416.66 -2.03, 421.61 0.31, 425.27 2.04 M425.27 2.04 C425.27 2.04, 425.27 2.04, 425.27 2.04 M425.27 2.04 C425.27 2.04, 425.27 2.04, 425.27 2.04" stroke="#e67700" stroke-width="4" fill="none"></path></g></g><g stroke-linecap="round"><g transform="translate(510.57431119791636 693.7323908730136) rotate(0 -80.39253162201067 -97.53817141056857)"><path d="M0 0 C-26.8 -32.51, -133.99 -162.56, -160.79 -195.08" stroke="#ee00ff" stroke-width="4.5" fill="none" stroke-dasharray="8 12"></path></g><g transform="translate(510.57431119791636 693.7323908730136) rotate(0 -80.39253162201067 -97.53817141056857)"><path d="M-160.79 -195.08 L-147.25 -188.62 L-157.03 -180.55 L-160.79 -195.08" stroke="none" stroke-width="0" fill="#ee00ff" fill-rule="evenodd"></path><path d="M-160.79 -195.08 C-157.89 -193.7, -155 -192.32, -147.25 -188.62 M-147.25 -188.62 C-150.86 -185.64, -154.47 -182.67, -157.03 -180.55 M-157.03 -180.55 C-158.36 -185.69, -159.69 -190.83, -160.79 -195.08 M-160.79 -195.08 C-160.79 -195.08, -160.79 -195.08, -160.79 -195.08" stroke="#ee00ff" stroke-width="4.5" fill="none"></path></g></g><g stroke-linecap="round"><g transform="translate(358.06780078124984 431.4049169146801) rotate(0 77.9833984375 -34.76888020833326)"><path d="M0 0 C25.99 -11.59, 129.97 -57.95, 155.97 -69.54" stroke="#ee00ff" stroke-width="4.5" fill="none" stroke-dasharray="8 12"></path></g><g transform="translate(358.06780078124984 431.4049169146801) rotate(0 77.9833984375 -34.76888020833326)"><path d="M155.97 -69.54 L146.13 -58.21 L140.97 -69.79 L155.97 -69.54" stroke="none" stroke-width="0" fill="#ee00ff" fill-rule="evenodd"></path><path d="M155.97 -69.54 C152.75 -65.84, 149.54 -62.14, 146.13 -58.21 M146.13 -58.21 C144.28 -62.35, 142.44 -66.5, 140.97 -69.79 M140.97 -69.79 C146.8 -69.69, 152.62 -69.59, 155.97 -69.54 M155.97 -69.54 C155.97 -69.54, 155.97 -69.54, 155.97 -69.54" stroke="#ee00ff" stroke-width="4.5" fill="none"></path></g></g><g stroke-linecap="round"><g transform="translate(1605.9115507812498 1206.7206721230136) rotate(0 196.478515625 0.642578125)"><path d="M0 0 C65.49 0.21, 327.46 1.07, 392.96 1.29" stroke="#ee00ff" stroke-width="4.5" fill="none" stroke-dasharray="8 12"></path></g><g transform="translate(1605.9115507812498 1206.7206721230136) rotate(0 196.478515625 0.642578125)"><path d="M392.96 1.29 L379.34 7.58 L379.38 -5.1 L392.96 1.29" stroke="none" stroke-width="0" fill="#ee00ff" fill-rule="evenodd"></path><path d="M392.96 1.29 C389.52 2.87, 386.09 4.46, 379.34 7.58 M379.34 7.58 C379.36 2.57, 379.37 -2.44, 379.38 -5.1 M379.38 -5.1 C384.29 -2.79, 389.2 -0.48, 392.96 1.29 M392.96 1.29 C392.96 1.29, 392.96 1.29, 392.96 1.29" stroke="#ee00ff" stroke-width="4.5" fill="none"></path></g></g><g transform="translate(1734.3041289062503 1132.0429377480136) rotate(0 88.5 22.5)"><text x="177" y="36" font-family="Cascadia, Segoe UI Emoji" font-size="37.76092918212647px" fill="#a3cccb" text-anchor="end" style="white-space: pre;" direction="ltr">3rd Step</text></g><g stroke-linecap="round"><g transform="translate(818.9467070312498 845.4023127480136) rotate(0 101.0986328125 72.0849609375)"><path d="M0 0 C33.7 24.03, 168.5 120.14, 202.2 144.17" stroke="#00ff0d" stroke-width="4.5" fill="none" stroke-dasharray="8 12"></path></g><g transform="translate(818.9467070312498 845.4023127480136) rotate(0 101.0986328125 72.0849609375)"><path d="M202.2 144.17 L187.45 141.44 L194.81 131.12 L202.2 144.17" stroke="none" stroke-width="0" fill="#00ff0d" fill-rule="evenodd"></path><path d="M202.2 144.17 C198.91 143.56, 195.62 142.95, 187.45 141.44 M187.45 141.44 C189.83 138.09, 192.22 134.74, 194.81 131.12 M194.81 131.12 C196.56 134.21, 198.31 137.3, 202.2 144.17 M202.2 144.17 C202.2 144.17, 202.2 144.17, 202.2 144.17" stroke="#00ff0d" stroke-width="4.5" fill="none"></path></g></g><g stroke-linecap="round"><g transform="translate(1286.2025664062498 1012.5312189980136) rotate(0 148.2861328125 -218.5595703125)"><path d="M0 0 C25.46 -9.8, 110.3 3.29, 152.77 -58.82 C195.24 -120.93, 230.86 -309.63, 254.82 -372.68 C278.79 -435.73, 289.61 -426.38, 296.57 -437.12" stroke="#00ff0d" stroke-width="4.5" fill="none" stroke-dasharray="8 12"></path></g><g transform="translate(1286.2025664062498 1012.5312189980136) rotate(0 148.2861328125 -218.5595703125)"><path d="M296.57 -437.12 L290.65 -423.34 L282.21 -432.8 L296.57 -437.12" stroke="none" stroke-width="0" fill="#00ff0d" fill-rule="evenodd"></path><path d="M296.57 -437.12 C294.31 -431.86, 292.05 -426.6, 290.65 -423.34 M290.65 -423.34 C288.09 -426.21, 285.52 -429.08, 282.21 -432.8 M282.21 -432.8 C286.68 -434.15, 291.16 -435.49, 296.57 -437.12 M296.57 -437.12 C296.57 -437.12, 296.57 -437.12, 296.57 -437.12" stroke="#00ff0d" stroke-width="4.5" fill="none"></path></g></g><g stroke-linecap="round"><g transform="translate(1584.3568632812498 511.05660962301357) rotate(0 -142.734375 -63.199609374999994)"><path d="M0 0 C-35.24 -1.27, -163.85 14.11, -211.43 -7.64 C-259 -29.38, -273.13 -110, -285.47 -130.48" stroke="#00ff0d" stroke-width="4.5" fill="none" stroke-dasharray="8 12"></path></g><g transform="translate(1584.3568632812498 511.05660962301357) rotate(0 -142.734375 -63.199609374999994)"><path d="M-285.47 -130.48 L-274.57 -120.17 L-286.36 -115.51 L-285.47 -130.48" stroke="none" stroke-width="0" fill="#00ff0d" fill-rule="evenodd"></path><path d="M-285.47 -130.48 C-283.16 -128.3, -280.86 -126.11, -274.57 -120.17 M-274.57 -120.17 C-278.81 -118.49, -283.05 -116.81, -286.36 -115.51 M-286.36 -115.51 C-286.01 -121.44, -285.65 -127.38, -285.47 -130.48 M-285.47 -130.48 C-285.47 -130.48, -285.47 -130.48, -285.47 -130.48" stroke="#00ff0d" stroke-width="4.5" fill="none"></path></g></g><g transform="translate(1185.3434084201394 318.1860659779877) rotate(0 94.5 17.5)"><text x="189" y="28" font-family="Cascadia, Segoe UI Emoji" font-size="29.266661283376433px" fill="#a3cccb" text-anchor="end" style="white-space: pre;" direction="ltr">counter = 2</text></g><g stroke-linecap="round"><g transform="translate(1603.0756132812498 1301.7480158730136) rotate(0 202.3984375 0.05859375)"><path d="M0 0 C67.47 0.02, 337.33 0.1, 404.8 0.12" stroke="#00ff0d" stroke-width="4.5" fill="none" stroke-dasharray="8 12"></path></g><g transform="translate(1603.0756132812498 1301.7480158730136) rotate(0 202.3984375 0.05859375)"><path d="M404.8 0.12 L391.2 6.45 L391.2 -6.23 L404.8 0.12" stroke="none" stroke-width="0" fill="#00ff0d" fill-rule="evenodd"></path><path d="M404.8 0.12 C400.87 1.95, 396.94 3.78, 391.2 6.45 M391.2 6.45 C391.2 1.97, 391.2 -2.51, 391.2 -6.23 M391.2 -6.23 C394.02 -4.91, 396.84 -3.59, 404.8 0.12 M404.8 0.12 C404.8 0.12, 404.8 0.12, 404.8 0.12" stroke="#00ff0d" stroke-width="4.5" fill="none"></path></g></g><g stroke-linecap="round"><g transform="translate(1595.9896757812498 1404.2714533730136) rotate(0 215.1171875 0.03515625)"><path d="M0 0 C71.71 0.01, 358.53 0.06, 430.23 0.07 M0 0 C71.71 0.01, 358.53 0.06, 430.23 0.07" stroke="#00ff0d" stroke-width="4" fill="none"></path></g><g transform="translate(1595.9896757812498 1404.2714533730136) rotate(0 215.1171875 0.03515625)"><path d="M430.23 0.07 L416.64 6.41 L416.64 -6.27 L430.23 0.07" stroke="none" stroke-width="0" fill="#00ff0d" fill-rule="evenodd"></path><path d="M430.23 0.07 C424.8 2.6, 419.37 5.14, 416.64 6.41 M430.23 0.07 C426.71 1.71, 423.18 3.36, 416.64 6.41 M416.64 6.41 C416.64 2.22, 416.64 -1.96, 416.64 -6.27 M416.64 6.41 C416.64 3.18, 416.64 -0.05, 416.64 -6.27 M416.64 -6.27 C419.56 -4.91, 422.48 -3.55, 430.23 0.07 M416.64 -6.27 C420.49 -4.48, 424.33 -2.68, 430.23 0.07 M430.23 0.07 C430.23 0.07, 430.23 0.07, 430.23 0.07 M430.23 0.07 C430.23 0.07, 430.23 0.07, 430.23 0.07" stroke="#00ff0d" stroke-width="4" fill="none"></path></g></g><g transform="translate(1731.1459257812494 1244.1777033730136) rotate(0 88.5 22.5)"><text x="177" y="36" font-family="Cascadia, Segoe UI Emoji" font-size="37.76092918212647px" fill="#a3cccb" text-anchor="end" style="white-space: pre;" direction="ltr">4th Step</text></g><g transform="translate(1725.4740507812494 1343.9042658730136) rotate(0 88.5 22.5)"><text x="177" y="36" font-family="Cascadia, Segoe UI Emoji" font-size="37.76092918212647px" fill="#a3cccb" text-anchor="end" style="white-space: pre;" direction="ltr">5th Step</text></g><g stroke-linecap="round"><g transform="translate(1245.8959257812498 380.55270337301357) rotate(0 168.7109375 129.5078125)"><path d="M0 0 C3.18 22.14, -14.09 95.75, 19.06 132.84 C52.22 169.94, 145.59 201.53, 198.94 222.56 C252.28 243.59, 315.77 252.94, 339.13 259.02 M0 0 C3.18 22.14, -14.09 95.75, 19.06 132.84 C52.22 169.94, 145.59 201.53, 198.94 222.56 C252.28 243.59, 315.77 252.94, 339.13 259.02" stroke="#00ff0d" stroke-width="4" fill="none"></path></g><g transform="translate(1245.8959257812498 380.55270337301357) rotate(0 168.7109375 129.5078125)"><path d="M339.13 259.02 L324.51 262.35 L327.18 249.95 L339.13 259.02" stroke="none" stroke-width="0" fill="#00ff0d" fill-rule="evenodd"></path><path d="M339.13 259.02 C334.39 260.09, 329.66 261.17, 324.51 262.35 M339.13 259.02 C333.75 260.24, 328.38 261.47, 324.51 262.35 M324.51 262.35 C325.52 257.66, 326.53 252.97, 327.18 249.95 M324.51 262.35 C325.34 258.49, 326.17 254.64, 327.18 249.95 M327.18 249.95 C329.85 251.98, 332.52 254, 339.13 259.02 M327.18 249.95 C331.71 253.39, 336.24 256.82, 339.13 259.02 M339.13 259.02 C339.13 259.02, 339.13 259.02, 339.13 259.02 M339.13 259.02 C339.13 259.02, 339.13 259.02, 339.13 259.02" stroke="#00ff0d" stroke-width="4" fill="none"></path></g></g><g stroke-linecap="round"><g transform="translate(1606.4740507812498 662.1542658730136) rotate(0 -325.453125 499.21444921875)"><path d="M0 0 C-7.88 10.5, -33.54 44.04, -47.27 62.98 C-61 81.91, -74.68 80.14, -82.38 113.59 C-90.08 147.04, -92.79 124.65, -93.48 263.68 C-94.18 402.71, -14.02 836.97, -86.55 947.77 C-159.08 1058.56, -434.61 960.06, -528.67 928.45 C-622.73 896.85, -630.53 786.51, -650.91 758.12 M0 0 C-7.88 10.5, -33.54 44.04, -47.27 62.98 C-61 81.91, -74.68 80.14, -82.38 113.59 C-90.08 147.04, -92.79 124.65, -93.48 263.68 C-94.18 402.71, -14.02 836.97, -86.55 947.77 C-159.08 1058.56, -434.61 960.06, -528.67 928.45 C-622.73 896.85, -630.53 786.51, -650.91 758.12" stroke="#00ff0d" stroke-width="4" fill="none"></path></g><g transform="translate(1606.4740507812498 662.1542658730136) rotate(0 -325.453125 499.21444921875)"><path d="M-650.91 758.12 L-639.92 768.33 L-651.66 773.1 L-650.91 758.12" stroke="none" stroke-width="0" fill="#00ff0d" fill-rule="evenodd"></path><path d="M-650.91 758.12 C-646.83 761.9, -642.76 765.68, -639.92 768.33 M-650.91 758.12 C-647.65 761.15, -644.38 764.17, -639.92 768.33 M-639.92 768.33 C-643.49 769.78, -647.07 771.23, -651.66 773.1 M-639.92 768.33 C-643.29 769.7, -646.66 771.07, -651.66 773.1 M-651.66 773.1 C-651.36 767.19, -651.07 761.28, -650.91 758.12 M-651.66 773.1 C-651.5 769.79, -651.33 766.49, -650.91 758.12 M-650.91 758.12 C-650.91 758.12, -650.91 758.12, -650.91 758.12 M-650.91 758.12 C-650.91 758.12, -650.91 758.12, -650.91 758.12" stroke="#00ff0d" stroke-width="4" fill="none"></path></g></g><g stroke-linecap="round" transform="translate(1285.384625558036 1599.171704489085) rotate(0 107.23005022321422 36.896623883928555)"><path d="M0 0 L214.46 0 L214.46 73.79 L0 73.79" stroke="none" stroke-width="0" fill="#614a85"></path><path d="M0 0 C49.77 0, 99.53 0, 214.46 0 M0 0 C60.46 0, 120.92 0, 214.46 0 M214.46 0 C214.46 21.99, 214.46 43.98, 214.46 73.79 M214.46 0 C214.46 17.62, 214.46 35.23, 214.46 73.79 M214.46 73.79 C148.02 73.79, 81.58 73.79, 0 73.79 M214.46 73.79 C164.45 73.79, 114.44 73.79, 0 73.79 M0 73.79 C0 51.99, 0 30.19, 0 0 M0 73.79 C0 57.33, 0 40.87, 0 0" stroke="#00ff0d" stroke-width="4" fill="none"></path></g><g transform="translate(1291.3881132812498 1615.4511408730136) rotate(0 94.5 17.5)"><text x="189" y="28" font-family="Cascadia, Segoe UI Emoji" font-size="29.266661283376433px" fill="#a3cccb" text-anchor="end" style="white-space: pre;" direction="ltr">counter = 2</text></g><g stroke-linecap="round"><g transform="translate(609.7422799479168 375.1021825396803) rotate(0 -120.69010416666674 43.21614583333337)"><path d="M0 0 C-40.23 14.41, -201.15 72.03, -241.38 86.43 M0 0 C-40.23 14.41, -201.15 72.03, -241.38 86.43" stroke="#e67700" stroke-width="4" fill="none"></path></g><g transform="translate(609.7422799479168 375.1021825396803) rotate(0 -120.69010416666674 43.21614583333337)"><path d="M-241.38 86.43 L-230.72 75.88 L-226.44 87.82 L-241.38 86.43" stroke="none" stroke-width="0" fill="#e67700" fill-rule="evenodd"></path><path d="M-241.38 86.43 C-239.11 84.18, -236.83 81.93, -230.72 75.88 M-241.38 86.43 C-238.72 83.8, -236.07 81.17, -230.72 75.88 M-230.72 75.88 C-229.36 79.68, -228 83.47, -226.44 87.82 M-230.72 75.88 C-229.74 78.61, -228.77 81.33, -226.44 87.82 M-226.44 87.82 C-231.13 87.38, -235.81 86.95, -241.38 86.43 M-226.44 87.82 C-231.43 87.35, -236.42 86.89, -241.38 86.43 M-241.38 86.43 C-241.38 86.43, -241.38 86.43, -241.38 86.43 M-241.38 86.43 C-241.38 86.43, -241.38 86.43, -241.38 86.43" stroke="#e67700" stroke-width="4" fill="none"></path></g></g><g stroke-linecap="round"><g transform="translate(13.341238281250298 569.3405104950227) rotate(0 391.3840683593746 439.8782242936049)"><path d="M0 0 C-0.09 0.09, 0.03 -9.47, -0.52 0.56 C-1.06 10.59, -3.86 30.97, -3.26 60.18 C-2.66 89.39, -1.5 92.28, 3.08 175.84 C7.66 259.39, 7.56 486.77, 24.21 561.52 C40.86 636.26, 57.66 612.84, 102.97 624.32 C148.28 635.8, 257.65 615.21, 296.07 630.39 C334.49 645.58, 312.2 681.56, 333.47 715.43 C354.74 749.3, 372.37 805.55, 423.7 833.6 C475.04 861.64, 581.08 883.52, 641.48 883.72 C701.88 883.92, 762 842.95, 786.11 834.79 M0 0 C-0.09 0.09, 0.03 -9.47, -0.52 0.56 C-1.06 10.59, -3.86 30.97, -3.26 60.18 C-2.66 89.39, -1.5 92.28, 3.08 175.84 C7.66 259.39, 7.56 486.77, 24.21 561.52 C40.86 636.26, 57.66 612.84, 102.97 624.32 C148.28 635.8, 257.65 615.21, 296.07 630.39 C334.49 645.58, 312.2 681.56, 333.47 715.43 C354.74 749.3, 372.37 805.55, 423.7 833.6 C475.04 861.64, 581.08 883.52, 641.48 883.72 C701.88 883.92, 762 842.95, 786.11 834.79" stroke="#e67700" stroke-width="4" fill="none"></path></g><g transform="translate(13.341238281250298 569.3405104950227) rotate(0 391.3840683593746 439.8782242936049)"><path d="M786.11 834.79 L776.47 846.28 L771.11 834.79 L786.11 834.79" stroke="none" stroke-width="0" fill="#e67700" fill-rule="evenodd"></path><path d="M786.11 834.79 C782.41 839.2, 778.71 843.61, 776.47 846.28 M786.11 834.79 C783.14 838.33, 780.17 841.87, 776.47 846.28 M776.47 846.28 C774.96 843.05, 773.45 839.82, 771.11 834.79 M776.47 846.28 C775.29 843.76, 774.11 841.23, 771.11 834.79 M771.11 834.79 C776.77 834.79, 782.43 834.79, 786.11 834.79 M771.11 834.79 C775.67 834.79, 780.22 834.79, 786.11 834.79 M786.11 834.79 C786.11 834.79, 786.11 834.79, 786.11 834.79 M786.11 834.79 C786.11 834.79, 786.11 834.79, 786.11 834.79" stroke="#e67700" stroke-width="4" fill="none"></path></g></g><g stroke-linecap="round" transform="translate(90.90025055803608 1174.874829489085) rotate(0 107.23005022321422 36.896623883928555)"><path d="M0 0 L214.46 0 L214.46 73.79 L0 73.79" stroke="none" stroke-width="0" fill="#614a85"></path><path d="M0 0 C76.58 0, 153.15 0, 214.46 0 M0 0 C77.7 0, 155.41 0, 214.46 0 M214.46 0 C214.46 21, 214.46 42, 214.46 73.79 M214.46 0 C214.46 20.47, 214.46 40.93, 214.46 73.79 M214.46 73.79 C162.92 73.79, 111.38 73.79, 0 73.79 M214.46 73.79 C168.1 73.79, 121.74 73.79, 0 73.79 M0 73.79 C0 52.27, 0 30.75, 0 0 M0 73.79 C0 45.73, 0 17.67, 0 0" stroke="#e67700" stroke-width="4" fill="none"></path></g><g transform="translate(94.32344314236116 1189.2192691029877) rotate(0 94.38498263888903 17.55999677002586)"><text x="188.76996527777808" y="28.11999354005171" font-family="Cascadia, Segoe UI Emoji" font-size="29.266661283376433px" fill="#a3cccb" text-anchor="end" style="white-space: pre;" direction="ltr">counter = 1</text></g><g stroke-linecap="round" transform="translate(109.85603945697312 788.59133844446) rotate(0 125.06184895833326 67.67903645833331)"><path d="M0 0 L250.12 0 L250.12 135.36 L0 135.36" stroke="none" stroke-width="0" fill="#444444"></path><path d="M0 0 C84.33 0, 168.65 0, 250.12 0 M250.12 0 C250.12 28.82, 250.12 57.64, 250.12 135.36 M250.12 135.36 C176.11 135.36, 102.09 135.36, 0 135.36 M0 135.36 C0 108.12, 0 80.87, 0 0" stroke="#0b7285" stroke-width="4.5" fill="none" stroke-dasharray="8 12"></path></g><g transform="translate(125.86552726677951 788.264064529102) rotate(0 101.54947916666663 69.63392857142858)"><text x="203.09895833333337" y="112.2678571428572" font-family="Cascadia, Segoe UI Emoji" font-size="116.05654761904769px" fill="#0b7285" text-anchor="end" style="white-space: pre;" direction="ltr">RAM</text></g><g stroke-linecap="round"><g transform="translate(1007.0309704241072 702.7443051739858) rotate(0 -319.71354166666697 -114.89583333333337)"><path d="M0 0 C-49.84 -29.11, -192.44 -136.36, -299.01 -174.66 C-405.58 -212.96, -582.69 -220.6, -639.43 -229.79" stroke="#e67700" stroke-width="4.5" fill="none" stroke-dasharray="8 12"></path></g><g transform="translate(1007.0309704241072 702.7443051739858) rotate(0 -319.71354166666697 -114.89583333333337)"><path d="M-639.43 -229.79 L-625.21 -234.59 L-626.62 -221.99 L-639.43 -229.79" stroke="none" stroke-width="0" fill="#e67700" fill-rule="evenodd"></path><path d="M-639.43 -229.79 C-636.13 -230.9, -632.83 -232.02, -625.21 -234.59 M-625.21 -234.59 C-625.64 -230.77, -626.06 -226.96, -626.62 -221.99 M-626.62 -221.99 C-630.35 -224.26, -634.08 -226.54, -639.43 -229.79 M-639.43 -229.79 C-639.43 -229.79, -639.43 -229.79, -639.43 -229.79" stroke="#e67700" stroke-width="4.5" fill="none"></path></g></g></svg>